<?xml version="1.0" encoding="utf-8"?>
<!-- Generator: Adobe Illustrator 27.2.0, SVG Export Plug-In . SVG Version: 6.00 Build 0)  -->
<svg version="1.1" id="Layer_1" xmlns="http://www.w3.org/2000/svg" xmlns:xlink="http://www.w3.org/1999/xlink" x="0px" y="0px"
	 viewBox="0 0 252 144" style="enable-background:new 0 0 252 144;" xml:space="preserve">
<style type="text/css">
	.st0{fill:#FFFBE9;stroke:#000000;stroke-width:0.2958;stroke-miterlimit:10;}
	.st1{opacity:0.7;fill:url(#SVGID_1_);stroke:#000000;stroke-width:0.2958;stroke-miterlimit:10;}
	.st2{opacity:0.8;fill:url(#SVGID_00000039842821079076735710000009043147973375450037_);}
	.st3{fill:none;}
	.st4{fill:#DF002B;stroke:#E9CC00;stroke-width:1.0657;stroke-miterlimit:10;}
	.st5{font-family:'Modak';}
	.st6{font-size:51.8655px;}
	.st7{opacity:0.7;fill:url(#SVGID_00000116218471564833858490000013346605116049349269_);}
	.st8{fill:none;stroke:#000000;stroke-width:0.2878;stroke-miterlimit:10;}
	.st9{opacity:0.6;fill:url(#SVGID_00000113314111728993513420000006462416713205610642_);}
	.st10{opacity:0.5;fill:url(#SVGID_00000054964336095811779180000006230680673734755493_);}
	.st11{opacity:0.4;fill:url(#SVGID_00000026848355830171698560000004949876712270415281_);}
	.st12{opacity:0.3;fill:url(#SVGID_00000094583004061597919670000006395326142913147533_);}
	.st13{opacity:0.3;fill:url(#SVGID_00000033339918991875655960000005269512660746278289_);}
	.st14{opacity:0.3;fill:url(#SVGID_00000183971643438220318260000013791855697862799515_);}
	.st15{opacity:0.3;fill:url(#SVGID_00000018236774424413190850000010681918821358522034_);}
	.st16{fill:#FFD63F;}
	.st17{opacity:0.3;fill:url(#SVGID_00000127027460004287111160000001228752350438341775_);}
</style>
<g id="_x30_J8PXP_00000044892887283996360760000000550527733071593392_">
	<path class="st0" d="M141.18,101.18c2.69,0.32,4.19,2.07,7.03,3.74c4.52,2.67,7,4.69,9.04,6.07c3.23,2.2,8.3,4.84,16.1,6.25
		c0.44,0.13,0.9,0.01,1.18-0.31c0.32-0.34,0.29-0.78,0.29-0.86c-0.6-1.74-1.16-3.77-1.58-6.06c-0.28-1.57-0.46-3.03-0.56-4.38
		c2.27-2.74,4.49-4.27,6.03-5.14c3.63-2.05,6.21-2.02,10.42-4.63c1.76-1.09,3.05-2.18,3.82-2.87c1.89-3.38,5.34-10.65,5.28-20.4
		c-0.08-12.46-5.84-21.19-8.07-24.23c-3.62-5.74-9.53-13.69-18.64-21.21c-8.1-6.7-15.99-10.8-21.87-13.3
		c-1.49-0.61-3.7-1.51-6.39-2.56c-3.34-1.31-6.78-2.62-7.8-2.98c-3.14-1.12-8.72-2.35-18.23-1.32c-2.67,0.55-5.9,1.44-9.43,2.93
		c-3.86,1.64-6.99,3.53-9.36,5.2c-0.61-0.23-1.64-0.54-2.95-0.49c-1.61,0.06-2.81,0.63-3.41,0.97c-0.45-0.35-0.89-0.55-1.28-0.67
		c-3.2-1-6.49,2.5-6.72,2.75c-0.51-0.09-1.2-0.13-2,0.02c-2.03,0.4-3.22,1.84-3.58,2.31c-0.87-0.03-1.96,0.02-3.18,0.28
		c-2.16,0.47-3.76,1.39-4.74,2.08c-0.94-0.03-2.29,0.1-3.6,0.85c-2.61,1.48-4.02,4.78-3.7,8.42c-0.37,4.22-0.75,8.44-1.12,12.66
		c-0.11,4.56-0.22,9.13-0.33,13.69c0.12,2.88,0.54,6.92,1.89,11.52c0.6,2.05,3.84,12.56,13.53,21.89
		c9.35,9.01,24.75,16.98,37.98,14.89c11.57-1.83,17.35-2.74,19.97-3.94C136.15,101.94,138.38,100.85,141.18,101.18z"/>
	<linearGradient id="SVGID_1_" gradientUnits="userSpaceOnUse" x1="102.0574" y1="55.1077" x2="189.7682" y2="55.1077">
		<stop  offset="0" style="stop-color:#E93E3A"/>
		<stop  offset="0.1665" style="stop-color:#ED683C"/>
		<stop  offset="0.3" style="stop-color:#EE6D3C"/>
		<stop  offset="0.4298" style="stop-color:#F3903F"/>
		<stop  offset="0.5321" style="stop-color:#FFF33B"/>
		<stop  offset="0.7352" style="stop-color:#FFEC33"/>
		<stop  offset="0.745" style="stop-color:#FFE72E"/>
		<stop  offset="0.7914" style="stop-color:#FED51B"/>
		<stop  offset="0.8391" style="stop-color:#FDCB10"/>
		<stop  offset="0.89" style="stop-color:#FDC70C"/>
	</linearGradient>
	<path class="st1" d="M102.06,22.03c-0.11-0.34,2-1.87,4.48-2.18c1.18-0.14,2.11,0.03,3.42-0.6c0.56-0.27,0.81-0.51,1.5-0.69
		c1.02-0.26,1.33,0.04,2.21-0.23c0.93-0.29,0.81-0.69,1.71-0.99c1.08-0.36,1.43,0.16,2.46-0.13c1.27-0.36,1.22-1.3,2.17-1.48
		c1.49-0.29,2.32,1.89,3.67,1.67c1.5-0.25,1.66-3.12,2.81-3.16c1.21-0.03,1.81,3.07,3.21,3c0.76-0.04,1.06-0.98,2.07-0.93
		c0.56,0.03,0.57,0.32,1.24,0.47c1.24,0.27,1.78-0.61,2.6-0.31c0.84,0.31,0.53,1.34,1.45,1.88c1.05,0.62,2.01-0.42,3,0.2
		c0.94,0.59,0.68,1.89,1.43,2.08c0.71,0.17,1.23-0.91,1.95-0.7c0.54,0.16,0.45,0.82,1.04,1.34c0.87,0.76,1.74-0.09,3.3,0.34
		c1.85,0.51,1.8,2.04,3.65,2.3c0.75,0.1,1.26-0.08,1.83,0.35c0.6,0.44,0.44,0.94,1.03,1.33c0.73,0.48,1.28-0.06,1.95,0.42
		c0.62,0.44,0.34,1.03,0.96,1.45c0.64,0.43,1.12-0.08,1.87,0.35c0.71,0.4,0.52,0.98,1.18,1.28c0.72,0.33,1.13-0.3,2.06-0.04
		c0.66,0.19,1.08,0.69,1.45,1.14c0.58,0.69,0.47,0.95,0.9,1.55c0.68,0.95,1.71,1.33,2.79,1.73c1.54,0.57,1.81,0.24,2.43,0.76
		c0.9,0.75,0.44,1.55,1.3,2.71c0.97,1.32,1.87,0.71,2.7,1.91c0.97,1.38,0.22,2.83,1.38,3.69c0.38,0.28,0.64,0.26,1.03,0.68
		c0.56,0.62,0.37,1.09,0.8,1.67c0.6,0.82,1.32,0.35,2,1.07c0.89,0.94,0.14,2.24,1.07,2.98c0.53,0.42,0.92,0.12,1.4,0.61
		c0.53,0.54,0.19,1.06,0.66,1.88c0.48,0.84,1.01,0.63,1.58,1.44c0.57,0.81,0.22,1.27,0.64,2.42c0.44,1.21,0.98,1.15,1.72,2.41
		c0.84,1.43,0.29,1.76,1.09,3.73c0.8,1.98,1.49,1.97,1.71,3.41c0.2,1.37-0.41,1.48-0.22,3.07c0.17,1.42,0.66,1.41,0.91,3.18
		c0.09,0.61,0.21,1.52,0,2.64c-0.17,0.89-0.36,0.89-0.43,1.6c-0.15,1.43,0.57,1.67,0.33,2.67c-0.24,1.04-1.12,1.23-1.12,2.28
		c0,0.49,0.19,0.46,0.16,0.88c-0.08,0.98-1.11,1.07-1.64,2.36c-0.22,0.54-0.16,0.8-0.48,1.1c-0.4,0.38-0.8,0.28-1.26,0.44
		c-0.98,0.35-0.99,1.47-2.05,3.28c-0.58,0.98-0.96,1.63-1.69,2.2c-1.56,1.23-3.21,0.96-3.34,1.73c-0.07,0.41,0.32,0.89,0.75,1.42
		c0.54,0.66,0.9,0.74,0.88,0.99c-0.01,0.14-0.16,0.48-2.8,0.94c-2.03,0.35-3.05,0.52-3.4,0.07c-0.4-0.52,0.27-1.19-0.02-2.42
		c0,0-0.21-0.9-1.07-1.74c-2.05-2.02-6.62,1.17-10.81-0.41c-2.03-0.77-1.59-1.76-4.89-4.77c-3.79-3.45-5.48-3.15-9.44-6.04
		c-3.77-2.75-3.23-3.74-8.44-8.99c-6.64-6.7-7.64-5.2-9.65-8.51c-3.48-5.72,0.29-8.87-2.23-19.41c-1.41-5.9-3.78-9.91-5.58-12.88
		c-2.94-4.87-4.94-8.2-8.72-9.44C107.58,19.38,102.23,22.56,102.06,22.03z"/>
	
		<linearGradient id="SVGID_00000164475370003584587710000003111103351209839765_" gradientUnits="userSpaceOnUse" x1="63.2042" y1="48.5231" x2="98.1156" y2="48.5231">
		<stop  offset="0.2162" style="stop-color:#FFF33B"/>
		<stop  offset="0.2608" style="stop-color:#FEE72E"/>
		<stop  offset="0.3462" style="stop-color:#FED51B"/>
		<stop  offset="0.4343" style="stop-color:#FDCA10"/>
		<stop  offset="0.5281" style="stop-color:#FDC70C"/>
		<stop  offset="0.8572" style="stop-color:#F3903F"/>
		<stop  offset="1" style="stop-color:#ED683C"/>
		<stop  offset="1" style="stop-color:#E93E3A"/>
	</linearGradient>
	<path style="opacity:0.8;fill:url(#SVGID_00000164475370003584587710000003111103351209839765_);" d="M98.12,15.27
		c-1.36,0.45-3.31,1.33-4.9,3.11c-2.54,2.86-2.21,5.9-3.64,10.11c-1.27,3.78-2.87,5.47-5.34,9.11c-5.33,7.84-9.38,16.84-11.38,22.98
		c-1.58,4.87-3.25,12.2-2.9,21.82c-1.46-2.08-3.08-4.78-4.48-8.11c-1.1-2.63-1.82-5.06-2.29-7.15c1.12-7.87,4.37-22.54,15.31-36.72
		C84.04,23.24,90,18.19,94.83,14.76c0.35-0.08,0.94-0.18,1.65-0.07C97.24,14.8,97.8,15.08,98.12,15.27z"/>
	<rect x="33.78" y="100.37" class="st3" width="203.31" height="43.04"/>
	<text transform="matrix(1 0 0 1 63.1515 136.4564)" class="st4 st5 st6">SHELL</text>
	
		<linearGradient id="SVGID_00000020386808879240417290000017896340525213221002_" gradientUnits="userSpaceOnUse" x1="77.2541" y1="60.1052" x2="117.8376" y2="60.1052">
		<stop  offset="0.2162" style="stop-color:#FFF33B"/>
		<stop  offset="0.2838" style="stop-color:#FEE72E"/>
		<stop  offset="0.4134" style="stop-color:#FED51B"/>
		<stop  offset="0.547" style="stop-color:#FDCA10"/>
		<stop  offset="0.6892" style="stop-color:#FDC70C"/>
		<stop  offset="1" style="stop-color:#E93E3A"/>
		<stop  offset="1" style="stop-color:#F3903F"/>
		<stop  offset="1" style="stop-color:#ED683C"/>
	</linearGradient>
	<path style="opacity:0.7;fill:url(#SVGID_00000020386808879240417290000017896340525213221002_);" d="M117.84,25.31
		c-1.84,2.07-4.18,4.84-6.75,8.22c0,0-1.44,1.89-2.81,3.84C101.11,47.54,94.8,61.06,94.8,61.06c-3.57,7.65-5.36,11.48-6.3,15.21
		c-2.4,9.53-1.52,17.86-0.49,23.16c-1.61-1.02-3.29-2.15-5.01-3.41c-2.11-1.55-4.03-3.09-5.75-4.59c0.01-5.17,0.54-12.54,2.94-20.99
		c2.66-9.36,6.4-15.72,10.23-22.15c4.34-7.28,11.06-17.1,21.08-27.51c0.91,0.21,2.52,0.7,4.11,1.98
		C116.71,23.66,117.41,24.62,117.84,25.31z"/>
	<path class="st8" d="M98.97,16.34"/>
	<path class="st8" d="M62.45,83.23"/>
	
		<linearGradient id="SVGID_00000143609938697290286210000005053673485841117870_" gradientUnits="userSpaceOnUse" x1="94.8878" y1="69.1921" x2="125.3215" y2="69.1921">
		<stop  offset="0.3401" style="stop-color:#FFF33B"/>
		<stop  offset="0.3992" style="stop-color:#FEE72E"/>
		<stop  offset="0.5126" style="stop-color:#FED51B"/>
		<stop  offset="0.6295" style="stop-color:#FDCA10"/>
		<stop  offset="0.754" style="stop-color:#FDC70C"/>
		<stop  offset="1" style="stop-color:#E93E3A"/>
		<stop  offset="1" style="stop-color:#F3903F"/>
		<stop  offset="1" style="stop-color:#ED683C"/>
	</linearGradient>
	<path style="opacity:0.6;fill:url(#SVGID_00000143609938697290286210000005053673485841117870_);" d="M125.32,38.3
		c-1.04,1.54-2.41,3.64-3.89,6.22c-1.69,2.94-2.94,5.45-4.12,7.98c-1.98,4.21-3.24,7.29-6.58,15.57
		c-4.05,10.04-5.09,12.69-6.25,17.04c-1.58,5.96-1.6,8.43-1.38,10.38c0.56,5.06,2.91,8.82,4.48,10.91
		c-1.22-0.16-2.51-0.37-3.87-0.66c-1.9-0.4-3.64-0.87-5.22-1.37c-1.28-2.12-2.97-5.57-3.47-10.04c-0.44-3.88,0.17-7.23,2-12.96
		c2.11-6.61,4.72-12.84,8.49-20.37c3.62-7.22,6.84-12.69,9.94-17.94c2.71-4.6,5.07-8.38,6.78-11.06c0.54,0.81,1.11,1.76,1.65,2.84
		C124.51,36.08,124.98,37.26,125.32,38.3z"/>
	
		<linearGradient id="SVGID_00000098928270007968749150000006446232737945655426_" gradientUnits="userSpaceOnUse" x1="112.8437" y1="75.7255" x2="127.9347" y2="75.7255">
		<stop  offset="0.3401" style="stop-color:#FFF33B"/>
		<stop  offset="0.3754" style="stop-color:#FEE72E"/>
		<stop  offset="0.4432" style="stop-color:#FED51B"/>
		<stop  offset="0.5131" style="stop-color:#FDCA10"/>
		<stop  offset="0.5875" style="stop-color:#FDC70C"/>
		<stop  offset="1" style="stop-color:#E93E3A"/>
		<stop  offset="1" style="stop-color:#F3903F"/>
		<stop  offset="1" style="stop-color:#ED683C"/>
	</linearGradient>
	<path style="opacity:0.5;fill:url(#SVGID_00000098928270007968749150000006446232737945655426_);" d="M127.61,57.22
		c-2.13,6.24-3.46,11.51-4.31,15.38c-0.54,2.48-0.97,4.9-1.82,9.74c-0.94,5.35-1.41,8.05-1.36,9.38c0.11,2.72,1.04,7.29,6.09,12.75
		c-1.29,0.28-2.65,0.55-4.07,0.78c-1.3,0.21-2.56,0.39-3.76,0.53c-3.4-3.23-4.56-6.38-5.03-8.1c-1.24-4.63-0.04-8.85,1.55-14.42
		c0.81-2.85,0.83-2.06,2.44-7.05c2.05-6.35,1.93-7.32,3.63-12.2c1.39-3.98,1.77-4.16,3.28-8.38c1.49-4.16,2.45-7.66,3.02-9.98
		c0.05,0.15,0.13,0.36,0.21,0.63c0.31,1.07,0.36,1.94,0.38,2.58c0.09,2.13,0.05,3.22,0.05,3.22
		C127.88,53.41,127.8,55.15,127.61,57.22z"/>
	
		<linearGradient id="SVGID_00000014594163080105951510000016888739868171203251_" gradientUnits="userSpaceOnUse" x1="127.6521" y1="85.8268" x2="137.0288" y2="85.8268">
		<stop  offset="0" style="stop-color:#ED683C"/>
		<stop  offset="0" style="stop-color:#E93E3A"/>
		<stop  offset="0.0905" style="stop-color:#F3903F"/>
		<stop  offset="0.2363" style="stop-color:#FFF33B"/>
		<stop  offset="0.2847" style="stop-color:#FEE72E"/>
		<stop  offset="0.3777" style="stop-color:#FED51B"/>
		<stop  offset="0.4735" style="stop-color:#FDCA10"/>
		<stop  offset="0.5755" style="stop-color:#FDC70C"/>
	</linearGradient>
	<path style="opacity:0.4;fill:url(#SVGID_00000014594163080105951510000016888739868171203251_);" d="M129.84,79.49
		c-0.51,2.61-2.11,10.69,2.65,17.55c1.42,2.05,3.07,3.51,4.53,4.55c-0.21,0.06-0.53,0.17-0.92,0.34c-0.53,0.23-0.73,0.39-1.2,0.58
		c-0.22,0.09-0.56,0.21-1.01,0.29c-1.82-1.93-3.84-4.68-5.09-8.32c-4.28-12.53,4.51-24.25,5.57-25.62
		C131.42,73.15,130.31,77.12,129.84,79.49z"/>
	<path class="st8" d="M138.68,105.04"/>
	
		<linearGradient id="SVGID_00000096750200586645006360000002767220902648672655_" gradientUnits="userSpaceOnUse" x1="134.8087" y1="89.8641" x2="142.7568" y2="89.8641">
		<stop  offset="0" style="stop-color:#ED683C"/>
		<stop  offset="0" style="stop-color:#E93E3A"/>
		<stop  offset="0.1787" style="stop-color:#F3903F"/>
		<stop  offset="0.2882" style="stop-color:#FFF33B"/>
		<stop  offset="0.4196" style="stop-color:#FFF33B"/>
		<stop  offset="0.4675" style="stop-color:#FEE72E"/>
		<stop  offset="0.5595" style="stop-color:#FED51B"/>
		<stop  offset="0.6542" style="stop-color:#FDCA10"/>
		<stop  offset="0.7552" style="stop-color:#FDC70C"/>
	</linearGradient>
	<path style="opacity:0.3;fill:url(#SVGID_00000096750200586645006360000002767220902648672655_);" d="M135.83,88.13
		c0.2,1.48,0.6,3.27,1.36,5.22c1.57,3.99,3.95,6.7,5.57,8.25c-0.35-0.12-0.76-0.24-1.22-0.33c-0.71-0.13-1.34-0.15-1.85-0.14
		c-0.87-0.96-5.38-6.09-4.83-13.54c0.35-4.74,2.58-8.06,3.65-9.45c-0.65,0.95-1.43,2.32-1.99,4.08
		C135.74,84.65,135.72,86.78,135.83,88.13z"/>
	<path class="st8" d="M137.85,87.39"/>
	<path class="st8" d="M139.99,106.73"/>
	
		<linearGradient id="SVGID_00000146489599449415273600000012663881990102707604_" gradientUnits="userSpaceOnUse" x1="142.1128" y1="96.0214" x2="151.0706" y2="96.0214">
		<stop  offset="0" style="stop-color:#ED683C"/>
		<stop  offset="0" style="stop-color:#E93E3A"/>
		<stop  offset="0.4439" style="stop-color:#FFF33B"/>
		<stop  offset="0.4487" style="stop-color:#FEEF3B"/>
		<stop  offset="0.4913" style="stop-color:#FACD3D"/>
		<stop  offset="0.5349" style="stop-color:#F7B23E"/>
		<stop  offset="0.5792" style="stop-color:#F59F3E"/>
		<stop  offset="0.6246" style="stop-color:#F3943F"/>
		<stop  offset="0.673" style="stop-color:#F3903F"/>
		<stop  offset="0.7929" style="stop-color:#FDC70C"/>
	</linearGradient>
	<path style="opacity:0.3;fill:url(#SVGID_00000146489599449415273600000012663881990102707604_);" d="M143.18,93.68
		c0.36,1.48,0.92,3.22,1.83,5.07c1.85,3.79,4.3,6.36,6.07,7.91c-0.6-0.43-1.24-0.87-1.91-1.3c-1.2-0.78-2.37-1.46-3.49-2.05
		c-1.12-1.66-3.16-5.19-3.51-10.08c-0.32-4.52,0.96-7.84,0.94-7.85c-0.02,0-0.79,2.53-0.42,5.78
		C142.81,92.19,143.01,92.97,143.18,93.68z"/>
	
		<linearGradient id="SVGID_00000165948786341817093320000002460605870498991511_" gradientUnits="userSpaceOnUse" x1="148.957" y1="99.2119" x2="155.1525" y2="99.2119">
		<stop  offset="0" style="stop-color:#ED683C"/>
		<stop  offset="0" style="stop-color:#E93E3A"/>
		<stop  offset="0.0905" style="stop-color:#F3903F"/>
		<stop  offset="0.1624" style="stop-color:#FFF33B"/>
		<stop  offset="0.6141" style="stop-color:#FFEE36"/>
		<stop  offset="0.6511" style="stop-color:#FFE72E"/>
		<stop  offset="0.7626" style="stop-color:#FED51B"/>
		<stop  offset="0.8775" style="stop-color:#FDCA10"/>
		<stop  offset="1" style="stop-color:#FDC70C"/>
	</linearGradient>
	<path style="opacity:0.3;fill:url(#SVGID_00000165948786341817093320000002460605870498991511_);" d="M149.58,96.15
		c0.04,1.71,0.32,4.53,1.71,7.66c1.19,2.69,2.75,4.59,3.86,5.75c-0.49-0.37-1.01-0.75-1.54-1.12c-0.68-0.48-1.36-0.94-2.02-1.37
		c-0.77-1.15-2.72-4.42-2.63-9.01c0.09-4.82,2.39-8.12,3.21-9.2c-0.5,0.79-1.02,1.77-1.48,2.93
		C150.03,93.45,149.72,94.97,149.58,96.15z"/>
	
		<linearGradient id="SVGID_00000097463452374030099780000000714424970180878000_" gradientUnits="userSpaceOnUse" x1="154.3705" y1="104.4724" x2="161.0507" y2="104.4724">
		<stop  offset="0" style="stop-color:#ED683C"/>
		<stop  offset="0" style="stop-color:#E93E3A"/>
		<stop  offset="0.0905" style="stop-color:#F3903F"/>
		<stop  offset="0.1624" style="stop-color:#FFF33B"/>
		<stop  offset="0.6141" style="stop-color:#FFEE36"/>
		<stop  offset="0.6511" style="stop-color:#FFE72E"/>
		<stop  offset="0.7626" style="stop-color:#FED51B"/>
		<stop  offset="0.8775" style="stop-color:#FDCA10"/>
		<stop  offset="1" style="stop-color:#FDC70C"/>
	</linearGradient>
	<path style="opacity:0.3;fill:url(#SVGID_00000097463452374030099780000000714424970180878000_);" d="M155.05,102
		c0.02,0.63,0.1,1.44,0.29,2.38c0.04,0.19,0.37,1.73,1.16,3.34c1.38,2.83,3.58,4.75,4.55,5.53c-0.17-0.09-0.41-0.22-0.72-0.39
		c-0.44-0.24-0.81-0.44-0.91-0.5c-0.73-0.41-1.61-0.99-2.18-1.37c-0.68-0.84-3.05-4.01-2.87-8.58c0.13-3.34,1.57-5.72,2.26-6.72
		c-0.33,0.71-0.65,1.54-0.92,2.48C155.3,99.62,155.12,100.93,155.05,102z"/>
	<path class="st16" d="M164.32,104.32"/>
	<path class="st16" d="M150.51,88.41"/>
	
		<linearGradient id="SVGID_00000120526073390309297640000008913915010926448816_" gradientUnits="userSpaceOnUse" x1="159.3727" y1="107.1616" x2="163.9829" y2="107.1616">
		<stop  offset="0" style="stop-color:#ED683C"/>
		<stop  offset="0" style="stop-color:#E93E3A"/>
		<stop  offset="0.0905" style="stop-color:#F3903F"/>
		<stop  offset="0.1624" style="stop-color:#FFF33B"/>
		<stop  offset="0.7888" style="stop-color:#FFEE36"/>
		<stop  offset="0.8072" style="stop-color:#FFE72E"/>
		<stop  offset="0.8625" style="stop-color:#FED51B"/>
		<stop  offset="0.9195" style="stop-color:#FDCA10"/>
		<stop  offset="0.9803" style="stop-color:#FDC70C"/>
	</linearGradient>
	<path style="opacity:0.3;fill:url(#SVGID_00000120526073390309297640000008913915010926448816_);" d="M160.04,106.04
		c0.02,0.63,0.1,1.44,0.29,2.38c0.19,0.89,0.43,2.06,1.16,3.34c0.39,0.69,1.14,1.8,2.49,2.82c-0.26-0.11-0.49-0.2-0.69-0.29
		c-0.39-0.17-0.67-0.29-1.03-0.46c-0.25-0.12-0.48-0.23-0.67-0.33c-0.59-0.81-2.28-3.37-2.22-7.04c0.05-3.49,1.66-5.9,2.26-6.72
		c-0.33,0.71-0.65,1.54-0.92,2.48C160.29,103.66,160.11,104.97,160.04,106.04z"/>
</g>
</svg>
